<svg xmlns="http://www.w3.org/2000/svg" width="341.798" height="87.581" fill-rule="evenodd" clip-rule="evenodd" image-rendering="optimizeQuality" shape-rendering="geometricPrecision" text-rendering="geometricPrecision"><g stroke-width=".176"><path fill="#0ca3f1" d="M252.256 0h10.882c14.178 2.172 25.117 9.28 32.821 21.325a94.789 94.789 0 0 0 4.564-1.228c12.637-2.593 23.489.654 32.558 9.74 8.505 10.057 10.787 21.407 6.844 34.05a58.457 58.457 0 0 1-2.018 4.826c.87 3.14 1.778 6.27 2.72 9.39.329 3.533-1.279 5.259-4.826 5.178a666.337 666.337 0 0 1-9.39-1.843c-10.531 6.584-21.56 7.55-33.084 2.896a37.386 37.386 0 0 1-7.986-5.002c-6.123 4.45-12.939 7.2-20.447 8.249h-10.882c-7.238-1.077-13.936-3.593-20.096-7.547a952.6 952.6 0 0 1-13.778 2.632c-2.882-.393-4.256-2.031-4.124-4.914a892.343 892.343 0 0 1 3.949-13.427c-6.134-12.087-6.924-24.519-2.37-37.296C224.153 11.607 235.706 2.597 252.257 0zm2.808 8.074c14.446-.355 25.62 5.437 33.523 17.376-11.626 8.867-16.337 20.568-14.129 35.102a35.07 35.07 0 0 0 5.178 12.374c-6.741 4.858-14.288 7.023-22.641 6.494-7.235-.558-13.729-3.015-19.482-7.372a5.328 5.328 0 0 0-3.51-.526c-2.522.463-5.037.96-7.547 1.491l-.351-.175a133.13 133.13 0 0 0 2.632-9.127 15.824 15.824 0 0 0-.438-1.755c-6.275-10.798-7.035-21.972-2.282-33.523 5.945-12.087 15.628-18.873 29.047-20.359zm50.547 19.482c10.785-.678 19.006 3.535 24.66 12.637 3.32 6.333 4.022 12.944 2.106 19.833a51.335 51.335 0 0 1-3.16 7.371 3.58 3.58 0 0 0 0 1.58 142.81 142.81 0 0 1 1.317 4.739 286.57 286.57 0 0 1-4.388-.79 4.703 4.703 0 0 0-3.335.702c-7.543 5.432-15.735 6.66-24.572 3.686-10.178-4.464-15.56-12.274-16.147-23.431.704-11.96 6.554-20.237 17.551-24.835a37.139 37.139 0 0 1 5.968-1.492z" opacity=".99"/><path fill="#fefffe" class="white-part" d="M88.105 6.845h17.551v57.568H93.897V18.43h-5.792z" opacity=".977"/><path fill="#0ca3f1" d="M254.366 18.43c4.714-.356 9.16.55 13.34 2.72 5.064 3.377 7.023 8.086 5.879 14.129-.902 2.943-2.57 5.371-5.002 7.283A70.033 70.033 0 0 0 262 47.74l-1.755 3.861c-1.897 1.983-4.15 2.48-6.757 1.492-2.419-1.537-3.326-3.73-2.72-6.582a9.677 9.677 0 0 1 1.754-3.86 47.748 47.748 0 0 1 6.407-5.53 14.903 14.903 0 0 0 2.545-2.896c1.058-4.003-.492-6.11-4.652-6.318-1.702-.048-3.136.538-4.3 1.755a64.914 64.914 0 0 0-2.106 4.037c-1.055 1.859-2.662 2.795-4.826 2.808-3.347-.07-5.16-1.767-5.441-5.09.312-3.677 1.892-6.69 4.739-9.038 2.824-2.145 5.983-3.461 9.477-3.95z" opacity=".991"/></g><g fill="#fefffe" stroke-width=".176" class="white-part"><path d="M64.06 19.657c6.95-.288 12.887 1.994 17.814 6.845a14.648 14.648 0 0 1 2.019 2.633 2030.2 2030.2 0 0 1-20.36 24.572c5.5.95 9.567-1.039 12.199-5.967l8.161 8.16c-6.67 8.464-15.212 11.155-25.625 8.074-8.388-3.42-13.156-9.65-14.304-18.692-.882-8.179 1.663-15.053 7.635-20.623 3.668-2.89 7.822-4.557 12.46-5.002zm.702 11.233a9.45 9.45 0 0 1 3.862.527A1693.3 1693.3 0 0 0 56.25 47.915a4.47 4.47 0 0 1-.702-1.58c-1.317-5.181-.059-9.598 3.773-13.25a11.697 11.697 0 0 1 5.441-2.195z" opacity=".98"/><path d="M181.298 19.833c9.11-.637 16.16 2.815 21.15 10.355 2.829 5.29 3.764 10.907 2.807 16.85-1.867 9.94-7.747 15.937-17.639 17.99a19.851 19.851 0 0 1-9.477-.703 36.344 36.344 0 0 1-5.266-2.545 511.999 511.999 0 0 0-.175 18.955h-11.233V21.412c.996-.029 1.99 0 2.984.088a264.82 264.82 0 0 1 4.124 5.002c3.577-3.5 7.82-5.722 12.725-6.67zm1.229 11.057c6.925.052 10.875 3.503 11.847 10.355.391 4.503-1.159 8.16-4.651 10.97-4.448 2.6-8.778 2.424-12.988-.527-3.958-4.05-4.982-8.76-3.072-14.13 1.734-3.87 4.688-6.094 8.864-6.669z" opacity=".983"/><path d="M17.023 20.535c9.224-.495 15.864 3.366 19.921 11.584a17.546 17.546 0 0 1 1.404 5.266c.088 9.01.117 18.019.088 27.029H27.38a682.57 682.57 0 0 0-.263-26.502c-1.711-4.88-5.134-6.84-10.267-5.88-3.177 1.187-5.078 3.44-5.704 6.757-.088 8.542-.117 17.083-.088 25.625H0v-43a12.836 12.836 0 0 1 2.984.176 49.83 49.83 0 0 0 3.334 3.686c3.132-2.59 6.701-4.17 10.706-4.74z" opacity=".985"/><path d="M114.778 21.412h11.057c-.083 8.724.004 17.441.264 26.151.969 4.187 3.602 6.41 7.898 6.67 2.844-.311 5.067-1.657 6.669-4.037a11.066 11.066 0 0 0 1.229-2.984 647.55 647.55 0 0 0 .263-25.8h11.057v43a22.554 22.554 0 0 1-2.808-.088 45.749 45.749 0 0 0-3.51-4.65 32.491 32.491 0 0 1-6.319 4.124c-7.546 2.713-14.303 1.397-20.272-3.95-2.828-3.022-4.583-6.59-5.265-10.705a757.49 757.49 0 0 1-.264-27.731z" opacity=".986"/></g><g stroke-width=".176"><path fill="#0ca3f1" d="M317.896 49.32c2.733-.017 4.255 1.328 4.564 4.036-.606 3.325-2.537 4.524-5.792 3.598-2.045-1.276-2.66-3.06-1.843-5.353.7-1.212 1.725-1.972 3.071-2.282z" opacity=".984"/><path fill="#0ca2f1" d="M296.656 49.32c3.09.193 4.523 1.83 4.3 4.914-.567 1.923-1.853 2.976-3.861 3.159-3.607-.779-4.72-2.885-3.335-6.319.783-.936 1.748-1.521 2.896-1.755z" opacity=".982"/><path fill="#0ca3f1" d="M306.666 49.494c3.568-.148 5.176 1.549 4.827 5.09-1.441 2.742-3.517 3.356-6.23 1.843-1.356-1.297-1.737-2.847-1.142-4.651.555-1.112 1.404-1.873 2.545-2.282z" opacity=".975"/><path fill="#0ca3f1" d="M254.536 55.637c4.736-.469 7.368 1.638 7.898 6.319-.503 4.613-3.076 6.69-7.722 6.23-3.85-1.217-5.459-3.82-4.827-7.81.764-2.372 2.313-3.952 4.651-4.739z" opacity=".988"/></g></svg>
